# xmcd
#
# Track frame offsets: 
#        150
#        15961
#        30569
#        42623
#        56212
#        70642
#        90296
#        100883
#        109625
#        121049
#        134401
#        143051
#
# Disc length: 2064 seconds
#
# Revision: 0
# Processed by: cddbd v1.5.2PL0 Copyright (c) Steve Scherf et al.
# Submitted via: ExactAudioCopy v1.0b1
#
DISCID=95080e0c
DTITLE=Jonny Fritz - Dad Country
DYEAR=1900
DGENRE=Country
TTITLE0=Goodbye Summer
TTITLE1=All We Do Is Complain
TTITLE2=Holy Water
TTITLE3=Social Climbers
TTITLE4=Aint It Your Birthday
TTITLE5=Shut Up
TTITLE6=Wrong Crowd
TTITLE7=Have You Ever Wanted to Die
TTITLE8=Fever Dreams
TTITLE9=Trash Day
TTITLE10=Suck In Your Gut
TTITLE11=Instrumental
EXTD=
EXTT0=
EXTT1=
EXTT2=
EXTT3=
EXTT4=
EXTT5=
EXTT6=
EXTT7=
EXTT8=
EXTT9=
EXTT10=
EXTT11=
PLAYORDER=
